# xmcd CD database file
# Generated: Mon Apr 19 17:13:23 2004 by WSPse's MP3c
#
# Track frame offsets:
#       150
#       13317
#       28997
#       48635
#       71429
#       91243
#       113777
#       132712
#       149557
#
# Disc length: 2433 seconds
#
# Revision: 0
# Processed by: cddbd v1.5PL3 Copyright (c) Steve Scherf et al.
# Submitted via: MP3c 0.27
#   WSPse mp3c-0.27 (NLS) - DEUTSCH (Jan 31 2004)
#
DISCID=8a097f09
DTITLE=Rhythm Gangsters - Walk And Roll
DYEAR=1900
DGENRE=
TTITLE0=Walk And Roll
TTITLE1=She's Sweet
TTITLE2=Special Swing
TTITLE3=Up and Down
TTITLE4=Stormy Monday
TTITLE5=R and B
TTITLE6=Right Time
TTITLE7=Cool Mood
TTITLE8=Voodo Chile - Slight Return
EXTD=
EXTT0=
EXTT1=
EXTT2=
EXTT3=
EXTT4=
EXTT5=
EXTT6=
EXTT7=
EXTT8=
PLAYORDER=
